<mxfile host="app.diagrams.net" agent="Mozilla/5.0 (Macintosh; Intel Mac OS X 10_15_7) AppleWebKit/537.36 (KHTML, like Gecko) Chrome/131.0.0.0 Safari/537.36" version="26.0.8">
  <diagram name="Page-1" id="rxUikbNhS81VZ34E9jhJ">
    <mxGraphModel dx="1990" dy="1195" grid="1" gridSize="10" guides="1" tooltips="1" connect="1" arrows="1" fold="1" page="1" pageScale="1" pageWidth="850" pageHeight="1100" background="light-dark(#FFFFFF,#121212)" math="0" shadow="0">
      <root>
        <mxCell id="0" />
        <mxCell id="1" parent="0" />
        <mxCell id="i3oHSg6McThZ8iKK2wcf-4" value="" style="rounded=0;whiteSpace=wrap;html=1;container=0;" vertex="1" parent="1">
          <mxGeometry x="245" y="215" width="360" height="670" as="geometry" />
        </mxCell>
        <mxCell id="i3oHSg6McThZ8iKK2wcf-42" style="rounded=0;orthogonalLoop=1;jettySize=auto;html=1;entryX=0;entryY=0.5;entryDx=0;entryDy=0;" edge="1" parent="1" source="i3oHSg6McThZ8iKK2wcf-1" target="i3oHSg6McThZ8iKK2wcf-5">
          <mxGeometry relative="1" as="geometry" />
        </mxCell>
        <mxCell id="i3oHSg6McThZ8iKK2wcf-43" style="rounded=0;orthogonalLoop=1;jettySize=auto;html=1;" edge="1" parent="1" source="i3oHSg6McThZ8iKK2wcf-1" target="i3oHSg6McThZ8iKK2wcf-6">
          <mxGeometry relative="1" as="geometry" />
        </mxCell>
        <mxCell id="i3oHSg6McThZ8iKK2wcf-44" style="edgeStyle=none;shape=connector;rounded=0;orthogonalLoop=1;jettySize=auto;html=1;strokeColor=default;align=center;verticalAlign=middle;fontFamily=Helvetica;fontSize=11;fontColor=default;labelBackgroundColor=default;endArrow=classic;" edge="1" parent="1" source="i3oHSg6McThZ8iKK2wcf-1" target="i3oHSg6McThZ8iKK2wcf-7">
          <mxGeometry relative="1" as="geometry" />
        </mxCell>
        <mxCell id="i3oHSg6McThZ8iKK2wcf-1" value="Pelanggan&lt;div&gt;(Online)&lt;/div&gt;" style="shape=umlActor;verticalLabelPosition=bottom;verticalAlign=top;html=1;outlineConnect=0;container=0;" vertex="1" parent="1">
          <mxGeometry x="175" y="345" width="30" height="60" as="geometry" />
        </mxCell>
        <mxCell id="i3oHSg6McThZ8iKK2wcf-49" style="edgeStyle=none;shape=connector;rounded=0;orthogonalLoop=1;jettySize=auto;html=1;strokeColor=default;align=center;verticalAlign=middle;fontFamily=Helvetica;fontSize=11;fontColor=default;labelBackgroundColor=default;endArrow=classic;" edge="1" parent="1" source="i3oHSg6McThZ8iKK2wcf-2" target="i3oHSg6McThZ8iKK2wcf-13">
          <mxGeometry relative="1" as="geometry" />
        </mxCell>
        <mxCell id="i3oHSg6McThZ8iKK2wcf-50" style="edgeStyle=none;shape=connector;rounded=0;orthogonalLoop=1;jettySize=auto;html=1;strokeColor=default;align=center;verticalAlign=middle;fontFamily=Helvetica;fontSize=11;fontColor=default;labelBackgroundColor=default;endArrow=classic;" edge="1" parent="1" source="i3oHSg6McThZ8iKK2wcf-2" target="i3oHSg6McThZ8iKK2wcf-12">
          <mxGeometry relative="1" as="geometry" />
        </mxCell>
        <mxCell id="i3oHSg6McThZ8iKK2wcf-2" value="Staff" style="shape=umlActor;verticalLabelPosition=bottom;verticalAlign=top;html=1;outlineConnect=0;container=0;" vertex="1" parent="1">
          <mxGeometry x="645" y="255" width="30" height="60" as="geometry" />
        </mxCell>
        <mxCell id="i3oHSg6McThZ8iKK2wcf-5" value="Daftar" style="ellipse;whiteSpace=wrap;html=1;container=0;" vertex="1" parent="1">
          <mxGeometry x="285" y="305" width="100" height="50" as="geometry" />
        </mxCell>
        <mxCell id="i3oHSg6McThZ8iKK2wcf-6" value="Melakukan Pemesanan" style="ellipse;whiteSpace=wrap;html=1;container=0;" vertex="1" parent="1">
          <mxGeometry x="285" y="375" width="100" height="50" as="geometry" />
        </mxCell>
        <mxCell id="i3oHSg6McThZ8iKK2wcf-45" style="edgeStyle=none;shape=connector;rounded=0;orthogonalLoop=1;jettySize=auto;html=1;strokeColor=default;align=center;verticalAlign=middle;fontFamily=Helvetica;fontSize=11;fontColor=default;labelBackgroundColor=default;endArrow=classic;" edge="1" parent="1" source="i3oHSg6McThZ8iKK2wcf-7" target="i3oHSg6McThZ8iKK2wcf-28">
          <mxGeometry relative="1" as="geometry" />
        </mxCell>
        <mxCell id="i3oHSg6McThZ8iKK2wcf-46" value="&amp;lt;extend&amp;gt;" style="edgeLabel;html=1;align=center;verticalAlign=middle;resizable=0;points=[];fontFamily=Helvetica;fontSize=11;fontColor=default;labelBackgroundColor=default;container=0;" vertex="1" connectable="0" parent="i3oHSg6McThZ8iKK2wcf-45">
          <mxGeometry x="-0.0887" relative="1" as="geometry">
            <mxPoint as="offset" />
          </mxGeometry>
        </mxCell>
        <mxCell id="i3oHSg6McThZ8iKK2wcf-7" value="Memantau Pesanan" style="ellipse;whiteSpace=wrap;html=1;container=0;" vertex="1" parent="1">
          <mxGeometry x="285" y="545" width="100" height="50" as="geometry" />
        </mxCell>
        <mxCell id="i3oHSg6McThZ8iKK2wcf-9" value="CuciCuci - Use Case Diagram" style="text;html=1;align=center;verticalAlign=middle;whiteSpace=wrap;rounded=0;container=0;" vertex="1" parent="1">
          <mxGeometry x="245" y="215" width="180" height="30" as="geometry" />
        </mxCell>
        <mxCell id="i3oHSg6McThZ8iKK2wcf-12" value="Manajemen Pesanan" style="ellipse;whiteSpace=wrap;html=1;container=0;" vertex="1" parent="1">
          <mxGeometry x="475" y="375" width="100" height="50" as="geometry" />
        </mxCell>
        <mxCell id="i3oHSg6McThZ8iKK2wcf-13" value="Mencatat Pemesanan" style="ellipse;whiteSpace=wrap;html=1;container=0;" vertex="1" parent="1">
          <mxGeometry x="475" y="305" width="100" height="50" as="geometry" />
        </mxCell>
        <mxCell id="i3oHSg6McThZ8iKK2wcf-47" style="edgeStyle=none;shape=connector;rounded=0;orthogonalLoop=1;jettySize=auto;html=1;strokeColor=default;align=center;verticalAlign=middle;fontFamily=Helvetica;fontSize=11;fontColor=default;labelBackgroundColor=default;endArrow=classic;" edge="1" parent="1" source="i3oHSg6McThZ8iKK2wcf-23" target="i3oHSg6McThZ8iKK2wcf-28">
          <mxGeometry relative="1" as="geometry" />
        </mxCell>
        <mxCell id="i3oHSg6McThZ8iKK2wcf-23" value="Kurir" style="shape=umlActor;verticalLabelPosition=bottom;verticalAlign=top;html=1;outlineConnect=0;container=0;" vertex="1" parent="1">
          <mxGeometry x="645" y="430" width="30" height="60" as="geometry" />
        </mxCell>
        <mxCell id="i3oHSg6McThZ8iKK2wcf-28" value="Melihat Detail Pesanan" style="ellipse;whiteSpace=wrap;html=1;container=0;" vertex="1" parent="1">
          <mxGeometry x="385" y="445" width="100" height="50" as="geometry" />
        </mxCell>
        <mxCell id="i3oHSg6McThZ8iKK2wcf-30" value="Manajemen Staff / Pelanggan" style="ellipse;whiteSpace=wrap;html=1;container=0;" vertex="1" parent="1">
          <mxGeometry x="475" y="545" width="100" height="50" as="geometry" />
        </mxCell>
        <mxCell id="i3oHSg6McThZ8iKK2wcf-55" style="edgeStyle=none;shape=connector;rounded=0;orthogonalLoop=1;jettySize=auto;html=1;strokeColor=default;align=center;verticalAlign=middle;fontFamily=Helvetica;fontSize=11;fontColor=default;labelBackgroundColor=default;endArrow=classic;" edge="1" parent="1" source="i3oHSg6McThZ8iKK2wcf-31" target="i3oHSg6McThZ8iKK2wcf-30">
          <mxGeometry relative="1" as="geometry" />
        </mxCell>
        <mxCell id="i3oHSg6McThZ8iKK2wcf-56" style="edgeStyle=none;shape=connector;rounded=0;orthogonalLoop=1;jettySize=auto;html=1;strokeColor=default;align=center;verticalAlign=middle;fontFamily=Helvetica;fontSize=11;fontColor=default;labelBackgroundColor=default;endArrow=classic;" edge="1" parent="1" source="i3oHSg6McThZ8iKK2wcf-31" target="i3oHSg6McThZ8iKK2wcf-32">
          <mxGeometry relative="1" as="geometry" />
        </mxCell>
        <mxCell id="i3oHSg6McThZ8iKK2wcf-31" value="Admin / Pemilik" style="shape=umlActor;verticalLabelPosition=bottom;verticalAlign=top;html=1;outlineConnect=0;container=0;" vertex="1" parent="1">
          <mxGeometry x="645" y="560" width="30" height="60" as="geometry" />
        </mxCell>
        <mxCell id="i3oHSg6McThZ8iKK2wcf-32" value="Manajemen Data Operasional" style="ellipse;whiteSpace=wrap;html=1;container=0;" vertex="1" parent="1">
          <mxGeometry x="475" y="615" width="100" height="50" as="geometry" />
        </mxCell>
        <mxCell id="i3oHSg6McThZ8iKK2wcf-33" value="Manajemen Inventory" style="ellipse;whiteSpace=wrap;html=1;container=0;" vertex="1" parent="1">
          <mxGeometry x="475" y="685" width="100" height="50" as="geometry" />
        </mxCell>
        <mxCell id="i3oHSg6McThZ8iKK2wcf-34" value="Manajemen Diskon" style="ellipse;whiteSpace=wrap;html=1;container=0;" vertex="1" parent="1">
          <mxGeometry x="475" y="750" width="100" height="50" as="geometry" />
        </mxCell>
        <mxCell id="i3oHSg6McThZ8iKK2wcf-35" value="Melihat Laporan" style="ellipse;whiteSpace=wrap;html=1;container=0;" vertex="1" parent="1">
          <mxGeometry x="475" y="815" width="100" height="50" as="geometry" />
        </mxCell>
        <mxCell id="i3oHSg6McThZ8iKK2wcf-57" style="edgeStyle=none;shape=connector;rounded=0;orthogonalLoop=1;jettySize=auto;html=1;strokeColor=default;align=center;verticalAlign=middle;fontFamily=Helvetica;fontSize=11;fontColor=default;labelBackgroundColor=default;endArrow=classic;" edge="1" parent="1" source="i3oHSg6McThZ8iKK2wcf-36" target="i3oHSg6McThZ8iKK2wcf-33">
          <mxGeometry relative="1" as="geometry" />
        </mxCell>
        <mxCell id="i3oHSg6McThZ8iKK2wcf-58" style="edgeStyle=none;shape=connector;rounded=0;orthogonalLoop=1;jettySize=auto;html=1;strokeColor=default;align=center;verticalAlign=middle;fontFamily=Helvetica;fontSize=11;fontColor=default;labelBackgroundColor=default;endArrow=classic;" edge="1" parent="1" source="i3oHSg6McThZ8iKK2wcf-36" target="i3oHSg6McThZ8iKK2wcf-34">
          <mxGeometry relative="1" as="geometry" />
        </mxCell>
        <mxCell id="i3oHSg6McThZ8iKK2wcf-59" style="edgeStyle=none;shape=connector;rounded=0;orthogonalLoop=1;jettySize=auto;html=1;strokeColor=default;align=center;verticalAlign=middle;fontFamily=Helvetica;fontSize=11;fontColor=default;labelBackgroundColor=default;endArrow=classic;" edge="1" parent="1" source="i3oHSg6McThZ8iKK2wcf-36" target="i3oHSg6McThZ8iKK2wcf-35">
          <mxGeometry relative="1" as="geometry" />
        </mxCell>
        <mxCell id="i3oHSg6McThZ8iKK2wcf-36" value="Supervisor / Manajer" style="shape=umlActor;verticalLabelPosition=bottom;verticalAlign=top;html=1;outlineConnect=0;container=0;" vertex="1" parent="1">
          <mxGeometry x="645" y="685" width="30" height="60" as="geometry" />
        </mxCell>
      </root>
    </mxGraphModel>
  </diagram>
</mxfile>
